<svg xmlns="http://www.w3.org/2000/svg" viewBox="0 0 174 174" width="174" height="174"><circle cx="107.685" cy="73.032" r="15.797" fill="#FFFFFF" /><circle cx="63.917" cy="73.145" r="15.686" fill="#FFFFFF" /><circle cx="107.200" cy="111.363" r="14.538" fill="#FFFFFF" /><circle cx="63.799" cy="111.360" r="14.362" fill="#FFFFFF" /><circle cx="107.000" cy="37.062" r="9.624" fill="#FFFFFF" /><circle cx="64.761" cy="37.055" r="9.591" fill="#FFFFFF" /><circle cx="29.190" cy="74.081" r="9.322" fill="#FFFFFF" /><circle cx="142.628" cy="74.093" r="9.253" fill="#FFFFFF" /><circle cx="29.213" cy="143.631" r="9.150" fill="#FFFFFF" /><circle cx="29.187" cy="36.706" r="9.132" fill="#FFFFFF" /><circle cx="142.611" cy="110.240" r="9.132" fill="#FFFFFF" /><circle cx="142.678" cy="36.690" r="9.115" fill="#FFFFFF" /><circle cx="29.207" cy="110.215" r="9.115" fill="#FFFFFF" /><circle cx="142.628" cy="143.697" r="9.115" fill="#FFFFFF" /><circle cx="64.294" cy="142.294" r="8.387" fill="#FFFFFF" /><circle cx="107.214" cy="142.233" r="8.273" fill="#FFFFFF" /><circle cx="106.526" cy="15.053" r="5.499" fill="#FFFFFF" /><circle cx="65.149" cy="15.064" r="5.470" fill="#FFFFFF" /><circle cx="8.000" cy="107.000" r="4.687" fill="#FFFFFF" /><circle cx="163.500" cy="107.000" r="4.583" fill="#FFFFFF" /><circle cx="64.123" cy="162.123" r="4.549" fill="#FFFFFF" /><circle cx="163.500" cy="74.500" r="4.514" fill="#FFFFFF" /><circle cx="8.048" cy="74.444" r="4.478" fill="#FFFFFF" /><circle cx="106.783" cy="162.167" r="4.370" fill="#FFFFFF" /></svg>